<?xml version="1.0" encoding="UTF-8"?>
<svg version="1.1" xmlns="http://www.w3.org/2000/svg" width="500" height="500">
<path d="M0 0 C165 0 330 0 500 0 C500 165 500 330 500 500 C335 500 170 500 0 500 C0 335 0 170 0 0 Z " fill="#000000" transform="translate(0,0)"/>
<path d="M0 0 C165 0 330 0 500 0 C500 165 500 330 500 500 C335 500 170 500 0 500 C0 335 0 170 0 0 Z M43 43 C43 179.62 43 316.24 43 457 C179.62 457 316.24 457 457 457 C457 320.38 457 183.76 457 43 C320.38 43 183.76 43 43 43 Z " fill="#FFFFFF" transform="translate(0,0)"/>
<path d="M0 0 C68.97 0 137.94 0 209 0 C209 13.86 209 27.72 209 42 C153.89 42 98.78 42 42 42 C42 69.39 42 96.78 42 125 C83.25 125 124.5 125 167 125 C167 138.86 167 152.72 167 167 C125.75 167 84.5 167 42 167 C42 194.39 42 221.78 42 250 C96.78 250 151.56 250 208 250 C208 263.86 208 277.72 208 292 C139.36 292 70.72 292 0 292 C0 195.64 0 99.28 0 0 Z " fill="#FCFCFC" transform="translate(86,104)"/>
<path d="M0 0 C25.41 0 50.82 0 77 0 C77 6.27 77 12.54 77 19 C83.27 19 89.54 19 96 19 C96 31.87 96 44.74 96 58 C89.73 58 83.46 58 77 58 C77 64.27 77 70.54 77 77 C70.73 77 64.46 77 58 77 C58 83.27 58 89.54 58 96 C64.27 96 70.54 96 77 96 C77 102.27 77 108.54 77 115 C83.27 115 89.54 115 96 115 C96 121.27 96 127.54 96 134 C89.4 134 82.8 134 76 134 C76 127.73 76 121.46 76 115 C69.73 115 63.46 115 57 115 C57 108.73 57 102.46 57 96 C50.73 96 44.46 96 38 96 C38 89.73 38 83.46 38 77 C31.73 77 25.46 77 19 77 C19 95.81 19 114.62 19 134 C12.73 134 6.46 134 0 134 C0 89.78 0 45.56 0 0 Z " fill="#FDFDFD" transform="translate(317,260)"/>
<path d="M0 0 C12.87 0 25.74 0 39 0 C39 37.95 39 75.9 39 115 C32.4 115 25.8 115 19 115 C19 83.65 19 52.3 19 20 C12.73 20 6.46 20 0 20 C0 13.4 0 6.8 0 0 Z " fill="#F4F4F4" transform="translate(355,102)"/>
<path d="M0 0 C18.48 0 36.96 0 56 0 C56 12.21 56 24.42 56 37 C37.52 37 19.04 37 0 37 C0 24.79 0 12.58 0 0 Z " fill="#000000" transform="translate(337,280)"/>
<path d="M0 0 C0.33 0 0.66 0 1 0 C1 6.27 1 12.54 1 19 C7.27 19 13.54 19 20 19 C20 31.87 20 44.74 20 58 C13.73 58 7.46 58 1 58 C1 64.27 1 70.54 1 77 C-5.27 77 -11.54 77 -18 77 C-18 83.27 -18 89.54 -18 96 C-11.73 96 -5.46 96 1 96 C1 102.27 1 108.54 1 115 C7.27 115 13.54 115 20 115 C20 121.27 20 127.54 20 134 C13.4 134 6.8 134 0 134 C0 127.73 0 121.46 0 115 C-6.27 115 -12.54 115 -19 115 C-19 108.73 -19 102.46 -19 96 C-25.27 96 -31.54 96 -38 96 C-38 89.73 -38 83.46 -38 77 C-37.67 77 -37.34 77 -37 77 C-37 82.94 -37 88.88 -37 95 C-31.06 95 -25.12 95 -19 95 C-19 88.73 -19 82.46 -19 76 C-12.73 76 -6.46 76 0 76 C0 70.06 0 64.12 0 58 C-18.81 58 -37.62 58 -57 58 C-57 45.13 -57 32.26 -57 19 C-38.19 19 -19.38 19 0 19 C0 12.73 0 6.46 0 0 Z M-56 20 C-56 32.21 -56 44.42 -56 57 C-37.52 57 -19.04 57 0 57 C0 44.79 0 32.58 0 20 C-18.48 20 -36.96 20 -56 20 Z " fill="#F0F0F0" transform="translate(393,260)"/>
<path d="M0 0 C12.54 0 25.08 0 38 0 C38 6.27 38 12.54 38 19 C25.46 19 12.92 19 0 19 C0 12.73 0 6.46 0 0 Z " fill="#FEFEFE" transform="translate(336,217)"/>
<path d="M0 0 C5.94 0 11.88 0 18 0 C18 12.21 18 24.42 18 37 C12.06 37 6.12 37 0 37 C0 24.79 0 12.58 0 0 Z " fill="#FFFFFF" transform="translate(394,280)"/>
<path d="M0 0 C0.33 0 0.66 0 1 0 C1 6.27 1 12.54 1 19 C7.27 19 13.54 19 20 19 C20 31.87 20 44.74 20 58 C13.73 58 7.46 58 1 58 C1 64.27 1 70.54 1 77 C-5.27 77 -11.54 77 -18 77 C-18 89.54 -18 102.08 -18 115 C-18.33 115 -18.66 115 -19 115 C-19 108.73 -19 102.46 -19 96 C-25.27 96 -31.54 96 -38 96 C-38 89.73 -38 83.46 -38 77 C-37.67 77 -37.34 77 -37 77 C-37 82.94 -37 88.88 -37 95 C-31.06 95 -25.12 95 -19 95 C-19 88.73 -19 82.46 -19 76 C-12.73 76 -6.46 76 0 76 C0 70.06 0 64.12 0 58 C-18.81 58 -37.62 58 -57 58 C-57 45.13 -57 32.26 -57 19 C-38.19 19 -19.38 19 0 19 C0 12.73 0 6.46 0 0 Z M-56 20 C-56 32.21 -56 44.42 -56 57 C-37.52 57 -19.04 57 0 57 C0 44.79 0 32.58 0 20 C-18.48 20 -36.96 20 -56 20 Z M1 20 C1 32.21 1 44.42 1 57 C6.94 57 12.88 57 19 57 C19 44.79 19 32.58 19 20 C13.06 20 7.12 20 1 20 Z " fill="#898989" transform="translate(393,260)"/>
<path d="M0 0 C5.94 0 11.88 0 18 0 C18 6.27 18 12.54 18 19 C12.06 19 6.12 19 0 19 C0 12.73 0 6.46 0 0 Z " fill="#FDFDFD" transform="translate(375,356)"/>
</svg>
