<?xml version="1.0" encoding="UTF-8"?>
<svg version="1.1" xmlns="http://www.w3.org/2000/svg" width="500" height="500">
<path d="M0 0 C165 0 330 0 500 0 C500 165 500 330 500 500 C335 500 170 500 0 500 C0 335 0 170 0 0 Z M43 43 C43 179.62 43 316.24 43 457 C179.62 457 316.24 457 457 457 C457 320.38 457 183.76 457 43 C320.38 43 183.76 43 43 43 Z " fill="#000000" transform="translate(0,0)"/>
<path d="M0 0 C68.31 0 136.62 0 207 0 C207 13.2 207 26.4 207 40 C124.83 40.495 124.83 40.495 41 41 C41 68.39 41 95.78 41 124 C81.92 124.33 122.84 124.66 165 125 C165 138.2 165 151.4 165 165 C103.62 165.495 103.62 165.495 41 166 C41 193.39 41 220.78 41 249 C123.17 249.495 123.17 249.495 207 250 C207 263.2 207 276.4 207 290 C138.69 290 70.38 290 0 290 C0 194.3 0 98.6 0 0 Z " fill="#000000" transform="translate(87,105)"/>
<path d="M0 0 C24.75 0 49.5 0 75 0 C75 5.94 75 11.88 75 18 C56.19 18 37.38 18 18 18 C18 30.87 18 43.74 18 57 C36.81 57 55.62 57 75 57 C75 62.94 75 68.88 75 75 C68.73 75 62.46 75 56 75 C56 81.27 56 87.54 56 94 C50.06 94 44.12 94 38 94 C38 87.73 38 81.46 38 75 C31.4 75 24.8 75 18 75 C18 94.14 18 113.28 18 133 C12.06 133 6.12 133 0 133 C0 89.11 0 45.22 0 0 Z " fill="#000000" transform="translate(318,261)"/>
<path d="M0 0 C12.21 0 24.42 0 37 0 C37 37.29 37 74.58 37 113 C31.06 113 25.12 113 19 113 C19 81.65 19 50.3 19 18 C12.73 18 6.46 18 0 18 C0 12.06 0 6.12 0 0 Z " fill="#000000" transform="translate(356,103)"/>
<path d="M0 0 C12.21 0 24.42 0 37 0 C37 6.27 37 12.54 37 19 C24.79 19 12.58 19 0 19 C0 12.73 0 6.46 0 0 Z " fill="#000000" transform="translate(337,217)"/>
<path d="M0 0 C5.94 0 11.88 0 18 0 C18 12.21 18 24.42 18 37 C12.06 37 6.12 37 0 37 C0 24.79 0 12.58 0 0 Z " fill="#000000" transform="translate(394,280)"/>
<path d="M0 0 C5.94 0 11.88 0 18 0 C18 6.27 18 12.54 18 19 C12.06 19 6.12 19 0 19 C0 12.73 0 6.46 0 0 Z " fill="#000000" transform="translate(394,375)"/>
<path d="M0 0 C5.94 0 11.88 0 18 0 C18 5.94 18 11.88 18 18 C12.06 18 6.12 18 0 18 C0 12.06 0 6.12 0 0 Z " fill="#000000" transform="translate(375,356)"/>
</svg>
